<svg id="katman_1" data-name="katman 1" xmlns="http://www.w3.org/2000/svg" viewBox="0 0 35 35"><defs><style>.cls-1{fill:#f7931a;}.cls-2{fill:#fff;}</style></defs><path class="cls-1" d="M33.74,21.55A16.73,16.73,0,1,1,21.55,1.26,16.74,16.74,0,0,1,33.74,21.55Z"/><path class="cls-2" d="M24.88,15.12c.33-2.23-1.36-3.43-3.68-4.23l.75-3-1.84-.46-.73,2.94c-.48-.13-1-.24-1.47-.35l.74-3-1.84-.46-.75,3-1.17-.28h0l-2.53-.64-.49,2s1.36.32,1.33.34a1,1,0,0,1,.86,1.06l-.86,3.44.19.06-.19-.05L12,20.32a.68.68,0,0,1-.84.44s-1.34-.34-1.34-.34l-.91,2.1,2.39.6,1.31.34-.76,3.05,1.83.46.75-3,1.47.38-.75,3,1.83.46.76-3c3.14.59,5.49.35,6.48-2.48.8-2.28,0-3.6-1.69-4.46A2.92,2.92,0,0,0,24.88,15.12ZM20.68,21c-.56,2.28-4.4,1.05-5.65.74l1-4C17.28,18,21.28,18.62,20.68,21Zm.57-5.92c-.52,2.08-3.71,1-4.75.76l.92-3.66C18.45,12.44,21.79,12.92,21.25,15.08Z"/></svg>